<?xml version="1.0" encoding="UTF-8" standalone="no"?>
<svg
   xmlns:dc="http://purl.org/dc/elements/1.1/"
   xmlns:cc="http://creativecommons.org/ns#"
   xmlns:rdf="http://www.w3.org/1999/02/22-rdf-syntax-ns#"
   xmlns:svg="http://www.w3.org/2000/svg"
   xmlns="http://www.w3.org/2000/svg"
   xmlns:sodipodi="http://sodipodi.sourceforge.net/DTD/sodipodi-0.dtd"
   xmlns:inkscape="http://www.inkscape.org/namespaces/inkscape"
   width="604.4295"
   height="438.02081"
   viewBox="0 0 483.5436 350.41665"
   version="1.1"
   id="svg2"
   inkscape:version="0.47pre4 r22446"
   sodipodi:docname="arranque_pilar_ink.svg">
  <sodipodi:namedview
     pagecolor="#ffffff"
     bordercolor="#666666"
     borderopacity="1"
     objecttolerance="10"
     gridtolerance="10"
     guidetolerance="10"
     inkscape:pageopacity="0"
     inkscape:pageshadow="2"
     inkscape:window-width="1280"
     inkscape:window-height="973"
     id="namedview588"
     showgrid="true"
     inkscape:zoom="2.0000001"
     inkscape:cx="258.48461"
     inkscape:cy="265.29672"
     inkscape:window-x="0"
     inkscape:window-y="27"
     inkscape:window-maximized="1"
     inkscape:current-layer="svg2">
    <inkscape:grid
       type="xygrid"
       id="grid4028"
       empspacing="5"
       visible="true"
       enabled="true"
       snapvisiblegridlinesonly="true" />
  </sodipodi:namedview>
  <metadata
     id="metadata590">
    <rdf:RDF>
      <cc:Work
         rdf:about="">
        <dc:format>image/svg+xml</dc:format>
        <dc:type
           rdf:resource="http://purl.org/dc/dcmitype/StillImage" />
        <dc:title />
      </cc:Work>
    </rdf:RDF>
  </metadata>
  <defs
     id="defs4">
    <inkscape:perspective
       id="perspective592"
       inkscape:persp3d-origin="526.25 : 247.91667 : 1"
       inkscape:vp_z="1052.5 : 371.875 : 1"
       inkscape:vp_y="0 : 1000 : 0"
       inkscape:vp_x="0 : 371.875 : 1"
       sodipodi:type="inkscape:persp3d" />
    <clipPath
       id="clip1">
      <path
         id="path7"
         d="m 0,595.30078 842,0 L 842,0 0,0 0,595.30078 z m 0,0" />
    </clipPath>
    <clipPath
       id="clip2">
      <path
         id="path10"
         d="m 109.39844,210.69922 0,-14.19922 c 0,-0.80078 0.60156,-1.39844 1.40234,-1.39844 l 70.89844,0 12.80078,0 1.30078,0 c 0.80078,0 1.5,0.59766 1.5,1.39844 l 0,182.80078 354.30078,0 0,-182.80078 c 0,-0.80078 0.59766,-1.39844 1.39844,-1.39844 l 1.39844,0 12.80078,0 70.90234,0 c 0.69922,0 1.39844,0.59766 1.39844,1.39844 l 0,14.19922 c 0,0.80078 -0.69922,1.40234 -1.39844,1.40234 l -69.5,0 0,182.79688 c 0,0.80078 -0.60156,1.40234 -1.40234,1.40234 l -14.19922,0 c -0.80078,0 -1.39844,-0.60156 -1.39844,-1.40234 l 0,-1.39844 -354.30078,0 0,1.39844 c 0,0.80078 -0.69922,1.40234 -1.5,1.40234 l -14.10156,0 c -0.80078,0 -1.39844,-0.60156 -1.39844,-1.40234 l 0,-182.79688 -69.5,0 c -0.80078,0 -1.40234,-0.60156 -1.40234,-1.40234 z m 0,0" />
    </clipPath>
    <clipPath
       id="clip3">
      <path
         id="path13"
         d="m 0,595.30078 842,0 L 842,0 0,0 0,595.30078 z m 0,0" />
    </clipPath>
    <inkscape:perspective
       id="perspective3134"
       inkscape:persp3d-origin="0.5 : 0.33333333 : 1"
       inkscape:vp_z="1 : 0.5 : 1"
       inkscape:vp_y="0 : 1000 : 0"
       inkscape:vp_x="0 : 0.5 : 1"
       sodipodi:type="inkscape:persp3d" />
    <inkscape:perspective
       id="perspective3162"
       inkscape:persp3d-origin="0.5 : 0.33333333 : 1"
       inkscape:vp_z="1 : 0.5 : 1"
       inkscape:vp_y="0 : 1000 : 0"
       inkscape:vp_x="0 : 0.5 : 1"
       sodipodi:type="inkscape:persp3d" />
  </defs>
  <rect
     style="fill:#ffffff;fill-opacity:1;fill-rule:nonzero;stroke:#000000;stroke-width:2.4000001;stroke-miterlimit:4;stroke-opacity:1;stroke-dasharray:none"
     id="rect3311"
     width="356"
     height="176"
     x="68.400002"
     y="126.01665" />
  <path
     id="path382"
     d="M 245.4,300.61666 68.399999,302.01665 68.30234,286.5151 424.4,286.01665 l 0,16 -179,-1.39999 z"
     style="fill:#b3b3b3;fill-opacity:1;fill-rule:evenodd;stroke:#000000;stroke-width:2.82999992;stroke-linecap:butt;stroke-linejoin:round;stroke-miterlimit:10;stroke-opacity:1"
     sodipodi:nodetypes="cccccc" />
  <path
     id="path384"
     d="m 170.2,270.71588 7.10156,14.19922 -14.19922,0 7.09766,-14.19922 z m 0,0"
     style="fill:none;stroke:#000000;stroke-width:2.82999992;stroke-linecap:butt;stroke-linejoin:round;stroke-miterlimit:10;stroke-opacity:1" />
  <path
     id="path388"
     d="m 119.70156,294.5151 0,0 z m 0,0"
     style="fill:none;stroke:#000000;stroke-width:2.82999992;stroke-linecap:butt;stroke-linejoin:round;stroke-miterlimit:10;stroke-opacity:1" />
  <path
     id="path390"
     d="m 311.80234,270.71588 7.09766,14.19922 -14.19922,0 7.10156,-14.19922 z m 0,0"
     style="fill:none;stroke:#000000;stroke-width:2.82999992;stroke-linecap:butt;stroke-linejoin:round;stroke-miterlimit:10;stroke-opacity:1" />
  <path
     id="path394"
     d="m 386.1,294.5151 0,0 z m 0,0"
     style="fill:none;stroke:#000000;stroke-width:2.82999992;stroke-linecap:butt;stroke-linejoin:round;stroke-miterlimit:10;stroke-opacity:1" />
  <path
     id="path400"
     d="m 250.1,294.5151 0,0 z m 0,0"
     style="fill:none;stroke:#000000;stroke-width:2.82999992;stroke-linecap:butt;stroke-linejoin:round;stroke-miterlimit:10;stroke-opacity:1" />
  <g
     inkscape:label="#g3915"
     id="patillas_pilar"
     transform="translate(-16.4,12.40088)">
    <path
       style="fill:none;stroke:#000000;stroke-width:2.82999992;stroke-linecap:butt;stroke-linejoin:round;stroke-miterlimit:10;stroke-opacity:1"
       d="m 223.90234,228.21578 c 0,28.30078 -28.30078,28.30078 -28.30078,28.30078 l -28.39844,0"
       id="patilla_izquierda_pilar"
       inkscape:label="#path578" />
    <path
       style="fill:none;stroke:#000000;stroke-width:2.82999992;stroke-linecap:butt;stroke-linejoin:round;stroke-miterlimit:10;stroke-opacity:1"
       d="m 292,228.21578 c 0,28.30078 28.30078,28.30078 28.30078,28.30078 l 28.40234,0"
       id="patilla_derecha_pilar"
       inkscape:label="#path580" />
  </g>
  <g
     inkscape:label="#g3898"
     id="estribos"
     transform="translate(-16.4,22.00088)">
    <path
       style="fill:#000000;fill-opacity:1;fill-rule:evenodd;stroke:none"
       d="m 221.10156,138.915 76.5,0 0,1.39844 0,1.40234 0,1.5 0,1.39844 -28.30078,0 0,-1.39844 0,-1.5 -48.19922,0 0,-1.40234 0,-1.39844 z m 0,0"
       id="path582" />
    <path
       style="fill:#000000;fill-opacity:1;fill-rule:evenodd;stroke:none"
       d="m 221.10156,175.81344 76.5,0 0,1.40234 0,1.39844 0,1.40234 0,1.39844 -28.30078,0 0,-1.39844 0,-1.40234 -48.19922,0 0,-1.39844 0,-1.40234 z m 0,0"
       id="path584" />
    <path
       style="fill:#000000;fill-opacity:1;fill-rule:evenodd;stroke:none"
       d="m 221.10156,212.61422 76.5,0 0,1.40234 0,1.39844 0,1.5 0,1.39844 -28.30078,0 0,-1.39844 0,-1.5 -48.19922,0 0,-1.39844 0,-1.40234 z m 0,0"
       id="path586" />
  </g>
  <path
     style="fill:none;stroke:#000000;stroke-width:0.80000001px;stroke-linecap:butt;stroke-linejoin:miter;stroke-opacity:1"
     d="m 421.2,21.616651 0,64"
     id="path4032" />
  <path
     style="fill:none;stroke:#000000;stroke-width:0.80000001px;stroke-linecap:butt;stroke-linejoin:miter;stroke-opacity:1"
     d="m 417.2,81.616651 64,0"
     id="path4034" />
  <path
     style="fill:none;stroke:#000000;stroke-width:0.80000001px;stroke-linecap:butt;stroke-linejoin:miter;stroke-opacity:1"
     d="m 421.2,21.616651 -4,12 8,0 -4,-12 z"
     id="path4036" />
  <path
     style="fill:none;stroke:#000000;stroke-width:0.80000001px;stroke-linecap:butt;stroke-linejoin:miter;stroke-opacity:1"
     d="m 481.2,81.616651 -12,-4 0,8 12,-4"
     id="path4038" />
  <text
     xml:space="preserve"
     style="font-size:9.60000038px;font-style:normal;font-variant:normal;font-weight:normal;font-stretch:normal;fill:#000000;fill-opacity:1;stroke:none;font-family:Arial;-inkscape-font-specification:Arial"
     x="477.20139"
     y="77.616653"
     id="text4042"><tspan
       sodipodi:role="line"
       id="tspan4044"
       x="477.20139"
       y="77.616653">X</tspan></text>
  <text
     xml:space="preserve"
     style="font-size:9.60000038px;font-style:normal;font-variant:normal;font-weight:normal;font-stretch:normal;fill:#000000;fill-opacity:1;stroke:none;font-family:Arial;-inkscape-font-specification:Arial"
     x="409.20108"
     y="29.616659"
     id="text4046"><tspan
       sodipodi:role="line"
       x="409.20108"
       y="29.616659"
       id="tspan4050">Z</tspan></text>
  <path
     style="fill:none;stroke:#000000;stroke-width:0.80000001px;stroke-linecap:butt;stroke-linejoin:miter;stroke-opacity:1"
     d="m 20.4,125.61665 -10e-7,164.4"
     id="path4054"
     sodipodi:nodetypes="cc" />
  <path
     style="fill:none;stroke:#000000;stroke-width:0.80000001px;stroke-linecap:butt;stroke-linejoin:miter;stroke-opacity:1"
     d="m 68.399999,286.01665 -67.99999995,0"
     id="path4056" />
  <text
     xml:space="preserve"
     style="font-size:9.60000038px;font-style:normal;font-variant:normal;font-weight:normal;font-stretch:normal;text-align:start;line-height:125%;writing-mode:lr-tb;text-anchor:start;fill:#000000;fill-opacity:1;stroke:none;font-family:Arial;-inkscape-font-specification:Arial"
     x="-218.01665"
     y="16.4"
     id="text4058"
     transform="matrix(0,-1,1,0,0,0)"
     sodipodi:linespacing="125%"><tspan
       sodipodi:role="line"
       id="tspan4085"
       x="-218.01665"
       y="16.4">ALTO</tspan></text>
  <path
     style="fill:none;stroke:#000000;stroke-width:0.80000001px;stroke-linecap:butt;stroke-linejoin:miter;stroke-opacity:1"
     d="m 68.4,301.61665 0,48"
     id="path4062" />
  <path
     style="fill:none;stroke:#000000;stroke-width:0.80000001px;stroke-linecap:butt;stroke-linejoin:miter;stroke-opacity:1"
     d="m 66,345.61665 360.8,0"
     id="path4064" />
  <path
     style="fill:none;stroke:#000000;stroke-width:0.80000001px;stroke-linecap:butt;stroke-linejoin:miter;stroke-opacity:1"
     d="m 424.4,302.01665 0,48"
     id="path4066"
     sodipodi:nodetypes="cc" />
  <text
     xml:space="preserve"
     style="font-size:9.60000038px;font-style:normal;font-variant:normal;font-weight:normal;font-stretch:normal;text-align:start;line-height:125%;writing-mode:lr-tb;text-anchor:start;fill:#000000;fill-opacity:1;stroke:none;font-family:Arial;-inkscape-font-specification:Arial"
     x="224.39999"
     y="341.61664"
     id="text4068"
     sodipodi:linespacing="125%"><tspan
       sodipodi:role="line"
       id="tspan4419"
       x="224.39999"
       y="341.61664">ANCHO</tspan></text>
  <path
     style="fill:none;stroke:#000000;stroke-width:0.80000001px;stroke-linecap:butt;stroke-linejoin:miter;stroke-opacity:1"
     d="m 0.39999905,126.01665 67.99999995,0"
     id="path4072"
     sodipodi:nodetypes="cc" />
  <g
     id="pilar"
     inkscape:label="#g3178"
     transform="translate(-19.6,12.40088)">
    <path
       style="fill:none;stroke:#000000;stroke-width:2.82999992;stroke-linecap:butt;stroke-linejoin:round;stroke-miterlimit:10;stroke-opacity:1"
       d="m 227.10234,1.415 0,226.80078"
       id="path574" />
    <path
       style="fill:none;stroke:#000000;stroke-width:2.82999992;stroke-linecap:butt;stroke-linejoin:round;stroke-miterlimit:10;stroke-opacity:1"
       d="m 295.2,1.415 0,226.80078"
       id="path576" />
    <path
       sodipodi:nodetypes="cc"
       id="path4054-3"
       d="m 40,-12.00088 0,129.61665"
       style="fill:none;stroke:#000000;stroke-width:0.80000001px;stroke-linecap:butt;stroke-linejoin:miter;stroke-opacity:1" />
    <text
       sodipodi:linespacing="125%"
       transform="matrix(0,-1,1,0,0,0)"
       id="text4058-3"
       y="34.302944"
       x="-103.80097"
       style="font-size:9.60000038px;font-style:normal;font-variant:normal;font-weight:normal;font-stretch:normal;text-align:start;line-height:125%;writing-mode:lr-tb;text-anchor:start;fill:#000000;fill-opacity:1;stroke:none;font-family:Arial;-inkscape-font-specification:Arial"
       xml:space="preserve"><tspan
         id="tspan4417-3"
         sodipodi:role="line"
         x="-103.80097"
         y="34.302944">LONGITUD ANCLAJE</tspan></text>
    <path
       sodipodi:nodetypes="cc"
       id="path4056-7"
       d="m 300,-2.3842285 -280,0"
       style="fill:none;stroke:#000000;stroke-width:0.80000001px;stroke-linecap:butt;stroke-linejoin:miter;stroke-opacity:1" />
  </g>
</svg>
