<?xml version="1.0" encoding="UTF-8" standalone="no"?>
<svg
   xmlns:dc="http://purl.org/dc/elements/1.1/"
   xmlns:cc="http://creativecommons.org/ns#"
   xmlns:rdf="http://www.w3.org/1999/02/22-rdf-syntax-ns#"
   xmlns:svg="http://www.w3.org/2000/svg"
   xmlns="http://www.w3.org/2000/svg"
   xmlns:sodipodi="http://sodipodi.sourceforge.net/DTD/sodipodi-0.dtd"
   xmlns:inkscape="http://www.inkscape.org/namespaces/inkscape"
   width="300"
   height="550"
   viewBox="0 0 240 440"
   version="1.1"
   id="svg2"
   inkscape:version="0.47pre4 r22446"
   sodipodi:docname="pilar_ink.svg">
  <sodipodi:namedview
     pagecolor="#ffffff"
     bordercolor="#666666"
     borderopacity="1"
     objecttolerance="10"
     gridtolerance="10"
     guidetolerance="10"
     inkscape:pageopacity="0"
     inkscape:pageshadow="2"
     inkscape:window-width="1280"
     inkscape:window-height="973"
     id="namedview588"
     showgrid="true"
     inkscape:zoom="1.0562158"
     inkscape:cx="102.70587"
     inkscape:cy="271.01791"
     inkscape:window-x="0"
     inkscape:window-y="27"
     inkscape:window-maximized="1"
     inkscape:current-layer="svg2">
    <inkscape:grid
       type="xygrid"
       id="grid4028"
       empspacing="5"
       visible="true"
       enabled="true"
       snapvisiblegridlinesonly="true" />
  </sodipodi:namedview>
  <metadata
     id="metadata590">
    <rdf:RDF>
      <cc:Work
         rdf:about="">
        <dc:format>image/svg+xml</dc:format>
        <dc:type
           rdf:resource="http://purl.org/dc/dcmitype/StillImage" />
        <dc:title></dc:title>
      </cc:Work>
    </rdf:RDF>
  </metadata>
  <defs
     id="defs4">
    <inkscape:perspective
       id="perspective592"
       inkscape:persp3d-origin="526.25 : 247.91667 : 1"
       inkscape:vp_z="1052.5 : 371.875 : 1"
       inkscape:vp_y="0 : 1000 : 0"
       inkscape:vp_x="0 : 371.875 : 1"
       sodipodi:type="inkscape:persp3d" />
    <clipPath
       id="clip1">
      <path
         id="path7"
         d="m 0,595.30078 842,0 L 842,0 0,0 0,595.30078 z m 0,0" />
    </clipPath>
    <clipPath
       id="clip2">
      <path
         id="path10"
         d="m 109.39844,210.69922 0,-14.19922 c 0,-0.80078 0.60156,-1.39844 1.40234,-1.39844 l 70.89844,0 12.80078,0 1.30078,0 c 0.80078,0 1.5,0.59766 1.5,1.39844 l 0,182.80078 354.30078,0 0,-182.80078 c 0,-0.80078 0.59766,-1.39844 1.39844,-1.39844 l 1.39844,0 12.80078,0 70.90234,0 c 0.69922,0 1.39844,0.59766 1.39844,1.39844 l 0,14.19922 c 0,0.80078 -0.69922,1.40234 -1.39844,1.40234 l -69.5,0 0,182.79688 c 0,0.80078 -0.60156,1.40234 -1.40234,1.40234 l -14.19922,0 c -0.80078,0 -1.39844,-0.60156 -1.39844,-1.40234 l 0,-1.39844 -354.30078,0 0,1.39844 c 0,0.80078 -0.69922,1.40234 -1.5,1.40234 l -14.10156,0 c -0.80078,0 -1.39844,-0.60156 -1.39844,-1.40234 l 0,-182.79688 -69.5,0 c -0.80078,0 -1.40234,-0.60156 -1.40234,-1.40234 z m 0,0" />
    </clipPath>
    <clipPath
       id="clip3">
      <path
         id="path13"
         d="m 0,595.30078 842,0 L 842,0 0,0 0,595.30078 z m 0,0" />
    </clipPath>
    <inkscape:perspective
       id="perspective3542"
       inkscape:persp3d-origin="0.5 : 0.33333333 : 1"
       inkscape:vp_z="1 : 0.5 : 1"
       inkscape:vp_y="0 : 1000 : 0"
       inkscape:vp_x="0 : 0.5 : 1"
       sodipodi:type="inkscape:persp3d" />
    <inkscape:perspective
       id="perspective3608"
       inkscape:persp3d-origin="0.5 : 0.33333333 : 1"
       inkscape:vp_z="1 : 0.5 : 1"
       inkscape:vp_y="0 : 1000 : 0"
       inkscape:vp_x="0 : 0.5 : 1"
       sodipodi:type="inkscape:persp3d" />
    <inkscape:perspective
       id="perspective3633"
       inkscape:persp3d-origin="0.5 : 0.33333333 : 1"
       inkscape:vp_z="1 : 0.5 : 1"
       inkscape:vp_y="0 : 1000 : 0"
       inkscape:vp_x="0 : 0.5 : 1"
       sodipodi:type="inkscape:persp3d" />
    <inkscape:perspective
       id="perspective3655"
       inkscape:persp3d-origin="0.5 : 0.33333333 : 1"
       inkscape:vp_z="1 : 0.5 : 1"
       inkscape:vp_y="0 : 1000 : 0"
       inkscape:vp_x="0 : 0.5 : 1"
       sodipodi:type="inkscape:persp3d" />
    <inkscape:perspective
       id="perspective3655-2"
       inkscape:persp3d-origin="0.5 : 0.33333333 : 1"
       inkscape:vp_z="1 : 0.5 : 1"
       inkscape:vp_y="0 : 1000 : 0"
       inkscape:vp_x="0 : 0.5 : 1"
       sodipodi:type="inkscape:persp3d" />
    <inkscape:perspective
       id="perspective3655-4"
       inkscape:persp3d-origin="0.5 : 0.33333333 : 1"
       inkscape:vp_z="1 : 0.5 : 1"
       inkscape:vp_y="0 : 1000 : 0"
       inkscape:vp_x="0 : 0.5 : 1"
       sodipodi:type="inkscape:persp3d" />
    <inkscape:perspective
       id="perspective3655-5"
       inkscape:persp3d-origin="0.5 : 0.33333333 : 1"
       inkscape:vp_z="1 : 0.5 : 1"
       inkscape:vp_y="0 : 1000 : 0"
       inkscape:vp_x="0 : 0.5 : 1"
       sodipodi:type="inkscape:persp3d" />
    <inkscape:perspective
       id="perspective3704"
       inkscape:persp3d-origin="0.5 : 0.33333333 : 1"
       inkscape:vp_z="1 : 0.5 : 1"
       inkscape:vp_y="0 : 1000 : 0"
       inkscape:vp_x="0 : 0.5 : 1"
       sodipodi:type="inkscape:persp3d" />
  </defs>
  <rect
     style="fill:#c8c8c8;fill-opacity:1;fill-rule:nonzero;stroke:#000000;stroke-width:2.4000001;stroke-miterlimit:4;stroke-opacity:0;stroke-dasharray:none"
     id="rect3718"
     width="92.000107"
     height="347.99985"
     x="112.00001"
     y="55.735092" />
  <path
     id="path388"
     d="m 35.301562,348.23354 0,0 z m 0,0"
     style="fill:none;stroke:#000000;stroke-width:2.82999992;stroke-linecap:butt;stroke-linejoin:round;stroke-miterlimit:10;stroke-opacity:1" />
  <path
     id="path574"
     d="m 124,67.735094 0,335.999996"
     style="fill:none;stroke:#000000;stroke-width:2.82999992;stroke-linecap:butt;stroke-linejoin:round;stroke-miterlimit:10;stroke-opacity:1"
     sodipodi:nodetypes="cc" />
  <path
     id="path576"
     d="m 192,67.735094 0,335.999996"
     style="fill:none;stroke:#000000;stroke-width:2.82999992;stroke-linecap:butt;stroke-linejoin:round;stroke-miterlimit:10;stroke-opacity:1"
     sodipodi:nodetypes="cc" />
  <path
     style="fill:none;stroke:#000000;stroke-width:0.80000001px;stroke-linecap:butt;stroke-linejoin:miter;stroke-opacity:1"
     d="m 36.000002,323.73509 0,64"
     id="path4032" />
  <path
     style="fill:none;stroke:#000000;stroke-width:0.80000001px;stroke-linecap:butt;stroke-linejoin:miter;stroke-opacity:1"
     d="m 32.000002,383.73509 64,0"
     id="path4034" />
  <path
     style="fill:none;stroke:#000000;stroke-width:0.80000001px;stroke-linecap:butt;stroke-linejoin:miter;stroke-opacity:1"
     d="m 36.000002,323.73509 -4,12 8,0 -4,-12 z"
     id="path4036" />
  <path
     style="fill:none;stroke:#000000;stroke-width:0.80000001px;stroke-linecap:butt;stroke-linejoin:miter;stroke-opacity:1"
     d="m 96.000002,383.73509 -12,-4 0,8 12,-4"
     id="path4038" />
  <text
     xml:space="preserve"
     style="font-size:9.60000038px;font-style:normal;font-variant:normal;font-weight:normal;font-stretch:normal;fill:#000000;fill-opacity:1;stroke:none;font-family:Arial;-inkscape-font-specification:Arial"
     x="92.000008"
     y="379.73511"
     id="text4042"><tspan
       sodipodi:role="line"
       id="tspan4044"
       x="92.000008"
       y="379.73511">X</tspan></text>
  <text
     xml:space="preserve"
     style="font-size:9.60000038px;font-style:normal;font-variant:normal;font-weight:normal;font-stretch:normal;fill:#000000;fill-opacity:1;stroke:none;font-family:Arial;-inkscape-font-specification:Arial"
     x="24.000002"
     y="331.73511"
     id="text4046"><tspan
       sodipodi:role="line"
       x="24.000002"
       y="331.73511"
       id="tspan4050">Z</tspan></text>
  <g
     id="patillas"
     inkscape:label="#g4519"
     transform="translate(-104,66.119324)">
    <rect
       transform="scale(0.8,0.8)"
       y="-42.980286"
       x="270"
       height="30"
       width="115"
       id="rect4517"
       style="fill:#c8c8c8;fill-opacity:1;fill-rule:nonzero;stroke:#000000;stroke-width:3;stroke-miterlimit:4;stroke-opacity:0;stroke-dasharray:none" />
    <path
       sodipodi:nodetypes="ccc"
       style="fill:none;stroke:#000000;stroke-width:2.82999992;stroke-linecap:butt;stroke-linejoin:round;stroke-miterlimit:10;stroke-opacity:1"
       d="m 296,1.6157715 c 0,-19.9999995 -4,-27.9999995 -20.57608,-27.7350955 l -11.42392,0"
       id="patilla_izquierda_pilar-3"
       inkscape:label="#path578" />
    <path
       sodipodi:nodetypes="ccc"
       style="fill:none;stroke:#000000;stroke-width:2.82999992;stroke-linecap:butt;stroke-linejoin:round;stroke-miterlimit:10;stroke-opacity:1"
       d="m 228,1.6157715 c 0,-19.9999985 4,-27.9999985 20.57608,-27.7350945 l 11.42392,0"
       id="patilla_izquierda_pilar-3-2"
       inkscape:label="#path578" />
  </g>
  <g
     id="estribos"
     inkscape:label="#g4503"
     transform="translate(-104,66.119324)">
    <path
       style="fill:none;stroke:#000000;stroke-width:2.82999992;stroke-linecap:butt;stroke-linejoin:round;stroke-miterlimit:10;stroke-opacity:1"
       d="m 269.7,282.11422 0,0 z m 0,0"
       id="path400" />
    <path
       style="fill:#000000;fill-opacity:1;fill-rule:evenodd;stroke:none"
       d="m 223.5,235.91655 76.5,0 0,1.39844 0,1.40234 0,1.5 0,1.39844 -28.30078,0 0,-1.39844 0,-1.5 -48.19922,0 0,-1.40234 0,-1.39844 z m 0,0"
       id="path582-6" />
    <path
       style="fill:#000000;fill-opacity:1;fill-rule:evenodd;stroke:none"
       d="m 223.80078,174.81499 76.5,0 0,1.39844 0,1.40234 0,1.5 0,1.39844 -28.30078,0 0,-1.39844 0,-1.5 -48.19922,0 0,-1.40234 0,-1.39844 z m 0,0"
       id="path582-6-1" />
    <path
       style="fill:#000000;fill-opacity:1;fill-rule:evenodd;stroke:none"
       d="m 223.80078,114.81499 76.5,0 0,1.39844 0,1.40234 0,1.5 0,1.39844 -28.30078,0 0,-1.39844 0,-1.5 -48.19922,0 0,-1.40234 0,-1.39844 z m 0,0"
       id="path582-6-2" />
    <path
       style="fill:#000000;fill-opacity:1;fill-rule:evenodd;stroke:none"
       d="m 223.5,55.215771 76.5,0 0,1.39844 0,1.40234 0,1.5 0,1.39844 -28.30078,0 0,-1.39844 0,-1.5 -48.19922,0 0,-1.40234 0,-1.39844 z m 0,0"
       id="path582-6-5" />
    <path
       style="fill:#000000;fill-opacity:1;fill-rule:evenodd;stroke:none"
       d="m 223.80078,294.81499 76.5,0 0,1.39844 0,1.40234 0,1.5 0,1.39844 -28.30078,0 0,-1.39844 0,-1.5 -48.19922,0 0,-1.40234 0,-1.39844 z m 0,0"
       id="path582-6-9" />
  </g>
</svg>
